<svg
  xmlns="http://www.w3.org/2000/svg"
  version="1.1"
  xmlns:xlink="http://www.w3.org/1999/xlink"
  width="512"
  height="512"
  x="0"
  y="0"
  viewBox="0 0 64 64"
  style="enable-background: new 0 0 512 512"
  xml:space="preserve"
  class=""
>
  <g>
    <g data-name="Filled outline">
      <path
        fill="#f4f4e6"
        d="M21 57h22a2 2 0 0 1 2 2v2H19v-2a2 2 0 0 1 2-2"
        opacity="1"
        data-original="#f4f4e6"
      ></path>
      <path
        fill="#ececec"
        d="M38 49H26a96.5 96.5 0 0 0 1-29h10a96.5 96.5 0 0 0 1 29"
        opacity="1"
        data-original="#ececec"
      ></path>
      <rect
        width="16"
        height="4"
        x="24"
        y="49"
        fill="#e2e1c7"
        rx="2"
        opacity="1"
        data-original="#e2e1c7"
      ></rect>
      <rect
        width="16"
        height="4"
        x="24"
        y="16"
        fill="#e2e1c7"
        rx="2"
        opacity="1"
        data-original="#e2e1c7"
      ></rect>
      <path
        fill="#ececec"
        d="M22 12h20v2a2 2 0 0 1-2 2H24a2 2 0 0 1-2-2z"
        opacity="1"
        data-original="#ececec"
      ></path>
      <path
        fill="#f4f4e6"
        d="M38 3v4h-4V3h-4v4h-4V3h-4v9h20V3z"
        opacity="1"
        data-original="#f4f4e6"
      ></path>
      <rect
        width="22"
        height="4"
        x="21"
        y="53"
        fill="#ececec"
        rx="2"
        opacity="1"
        data-original="#ececec"
      ></rect>
      <path
        d="M46 59a3 3 0 0 0-2.22-2.884A2.99 2.99 0 0 0 41 52h-.184a2.947 2.947 0 0 0-1.962-3.861A97.3 97.3 0 0 1 37.886 21H38a2.99 2.99 0 0 0 2.78-4.116A3 3 0 0 0 43 14V2h-6v4h-2V2h-6v4h-2V2h-6v12a3 3 0 0 0 2.22 2.884A2.99 2.99 0 0 0 26 21h.114a97.3 97.3 0 0 1-.968 27.139A2.947 2.947 0 0 0 23.184 52H23a2.99 2.99 0 0 0-2.78 4.116A3 3 0 0 0 18 59v3h28zM23 4h2v4h6V4h2v4h6V4h2v7H23zm0 10v-1h18v1a1 1 0 0 1-1 1H24a1 1 0 0 1-1-1m3 5a1 1 0 0 1 0-2h12a1 1 0 0 1 0 2zm2.126 2h7.748a99.8 99.8 0 0 0 .916 27h-9.58a99.8 99.8 0 0 0 .916-27M26 50h12a1 1 0 0 1 0 2H26a1 1 0 0 1 0-2m-3 4h18a1 1 0 0 1 0 2H23a1 1 0 0 1 0-2m21 6H20v-1a1 1 0 0 1 1-1h22a1 1 0 0 1 1 1z"
        fill="#000000"
        opacity="1"
        data-original="#000000"
      ></path>
      <path
        d="M31 44h2v2h-2zM31 40h2v2h-2z"
        fill="#000000"
        opacity="1"
        data-original="#000000"
      ></path>
    </g>
  </g>
</svg>
